<?xml version="1.0" standalone="no"?>
<!DOCTYPE svg PUBLIC "-//W3C//DTD SVG 20010904//EN"
 "http://www.w3.org/TR/2001/REC-SVG-20010904/DTD/svg10.dtd">
<svg version="1.0" xmlns="http://www.w3.org/2000/svg"
 width="500.000000pt" height="500.000000pt" viewBox="0 0 500.000000 500.000000"
 preserveAspectRatio="xMidYMid meet">
<metadata>
Created by potrace 1.11, written by Peter Selinger 2001-2013
</metadata>
<g transform="translate(0.000000,500.000000) scale(0.100000,-0.100000)"
fill="#000000" stroke="none">
<path d="M0 2500 l0 -2500 2500 0 2500 0 0 2500 0 2500 -2500 0 -2500 0 0
-2500z m1655 623 c422 -599 773 -1094 779 -1100 9 -10 72 71 276 356 l265 369
3 -385 2 -384 -257 -365 c-247 -351 -258 -365 -287 -362 -27 3 -78 69 -555
732 l-526 728 -3 -876 -2 -876 -245 0 -245 0 0 1625 c0 1371 2 1625 14 1625 7
0 359 -489 781 -1087z m2405 -103 l0 -1190 -250 0 -250 0 0 866 0 867 232 323
c157 220 238 324 250 324 17 0 18 -50 18 -1190z m0 -1835 l0 -225 -250 0 -250
0 0 225 0 225 250 0 250 0 0 -225z"/>
</g>
</svg>
